<?xml version="1.0" standalone="no"?>
<!DOCTYPE svg PUBLIC "-//W3C//DTD SVG 20010904//EN"
 "http://www.w3.org/TR/2001/REC-SVG-20010904/DTD/svg10.dtd">
<svg version="1.0" xmlns="http://www.w3.org/2000/svg"
 width="133.000000pt" height="133.000000pt" viewBox="0 0 133.000000 133.000000"
 preserveAspectRatio="xMidYMid meet">

<g transform="translate(0.000000,133.000000) scale(0.100000,-0.100000)"
fill="#000000" stroke="none">
<path d="M632 1308 c-8 -8 -12 -47 -12 -110 l0 -98 -67 0 c-118 -1 -198 -46
-239 -134 -41 -87 -29 -191 29 -262 46 -55 116 -84 205 -84 l72 0 0 -150 0
-150 -162 -2 -163 -3 -3 -28 c-6 -53 6 -57 174 -57 l154 0 0 -98 c0 -103 7
-122 45 -122 38 0 45 19 45 122 l0 98 68 0 c117 1 197 46 238 134 41 87 29
191 -29 262 -46 55 -116 84 -204 84 l-73 0 0 150 0 150 130 0 c118 0 130 2
140 19 14 27 13 37 -6 55 -12 13 -40 16 -140 16 l-124 0 0 98 c0 103 -7 122
-45 122 -12 0 -26 -5 -33 -12z m-12 -448 l0 -150 -62 0 c-113 0 -184 65 -175
161 7 87 75 139 180 139 l57 0 0 -150z m254 -263 c52 -30 78 -79 73 -138 -7
-86 -75 -139 -180 -139 l-57 0 0 150 0 150 63 0 c46 0 72 -6 101 -23z"/>
</g>
</svg>
